#!OML:ASF E:\acrobat2\Project_11_07_03\Capture day 1\Session 1\Acrobat.ASF
:FULLY-SPECIFIED
:DEGREES
184
root 8.37442 18.3888 5.87495 5.3852 -0.379983 -0.147486
lowerback -5.93305 -0.7689 -1.31281
upperback -3.41851 -0.957904 -0.290762
thorax -0.174686 -0.464263 0.383507
lowerneck 10.4979 -14.1991 -9.63864
upperneck 1.23742 -19.9372 6.98405
head 0.414049 -10.1615 4.1851
rclavicle 1.71328e-014 -9.54166e-015
rhumerus -38.7459 0.294555 -82.3678
rradius 25.7786
rwrist 0.281769
rhand -4.74702 -35.6298
rfingers 7.12502
rthumb 21.0365 -64.5088
lclavicle 1.71328e-014 -9.54166e-015
lhumerus -35.1062 -4.73507 84.9962
lradius 19.4981
lwrist 9.26304
lhand -11.0478 -11.4154
lfingers 7.12502
lthumb 14.9745 18.0232
rfemur 1.84093 6.12549 19.4934
rtibia 2.023
rfoot -19.5706 -25.5953
rtoes 1.54404
lfemur -0.224423 3.8856 -14.7223
ltibia 3.05963
lfoot -6.74328 -3.81834
ltoes 35.0697
185
root 8.37838 18.3913 5.86896 5.46822 -0.44451 -0.177175
lowerback -5.90747 -0.777354 -1.26833
upperback -3.47587 -0.972522 -0.27116
thorax -0.24802 -0.471444 0.378703
lowerneck 10.412 -14.1981 -9.76174
upperneck 1.42653 -19.95 7.02482
head 0.510612 -10.1709 4.19708
rclavicle -4.29872e-015 7.55382e-015
rhumerus -38.8526 0.527333 -82.4688
rradius 25.7904
rwrist 0.204247
rhand -4.92908 -35.5933
rfingers 7.12502
rthumb 20.8616 -64.4916
lclavicle -4.29872e-015 7.55382e-015
lhumerus -35.1231 -4.70032 85.0171
lradius 19.423
lwrist 9.23437
lhand -11.0422 -11.3731
lfingers 7.12502
lthumb 14.9799 18.0651
rfemur 1.64972 6.08264 19.4826
rtibia 2.19858
rfoot -19.6998 -25.3904
rtoes 1.73612
lfemur -0.372648 3.79867 -14.7236
ltibia 3.10828
lfoot -6.85243 -3.79295
ltoes 34.7267
186
root 8.38246 18.3923 5.86711 5.47705 -0.49594 -0.170539
lowerback -5.88276 -0.784578 -1.24602
upperback -3.49552 -0.983848 -0.28252
thorax -0.282331 -0.477307 0.35443
lowerneck 10.4775 -14.2024 -9.83649
upperneck 1.45921 -19.9718 7.11757
head 0.531307 -10.1859 4.24217
rclavicle 3.80176e-015 -1.21259e-014
rhumerus -38.9329 0.619157 -82.548
rradius 25.7418
rwrist 0.226138
rhand -5.23105 -35.5034
rfingers 7.12502
rthumb 20.5714 -64.4334
lclavicle 3.80176e-015 -1.21259e-014
lhumerus -35.1923 -4.83538 85.0714
lradius 19.4628
lwrist 9.42769
lhand -10.9427 -11.2237
lfingers 7.12502
lthumb 15.0757 18.2073
rfemur 1.60948 6.07097 19.44
rtibia 2.2348
rfoot -19.7272 -25.2693
rtoes 2.02206
lfemur -0.412518 3.84399 -14.7513
ltibia 3.14469
lfoot -6.77636 -3.99026
ltoes 34.9571
187
root 8.38751 18.3921 5.87005 5.43247 -0.520039 -0.0833404
lowerback -5.92331 -0.804953 -1.30728
upperback -3.44951 -1.00671 -0.312851
thorax -0.211697 -0.488701 0.355365
lowerneck 10.5499 -14.2235 -9.8119
upperneck 1.33416 -19.9988 7.15646
head 0.481849 -10.1995 4.26426
rclavicle -1.24365e-014 -1.98785e-015
rhumerus -38.8695 0.697821 -82.6151
rradius 25.5894
rwrist 0.220604
rhand -5.53564 -35.3024
rfingers 7.12502
rthumb 20.2787 -64.2638
lclavicle -1.24365e-014 -1.98785e-015
lhumerus -35.2365 -4.94798 85.1296
lradius 19.5354
lwrist 9.59321
lhand -10.9687 -11.2
lfingers 7.12502
lthumb 15.0506 18.2329
rfemur 1.66772 5.87925 19.2831
rtibia 2.22709
rfoot -19.6027 -25.0887
rtoes 2.16717
lfemur -0.354605 3.88573 -14.8939
ltibia 3.15043
lfoot -6.71106 -4.14921
ltoes 35.3977
188
root 8.39078 18.3921 5.87159 5.38985 -0.530365 0.00481893
lowerback -5.90962 -0.827721 -1.38728
upperback -3.42769 -1.03299 -0.340968
thorax -0.195642 -0.501168 0.369857
lowerneck 10.532 -14.1335 -9.7693
upperneck 1.35275 -19.8736 7.19889
head 0.479378 -10.1377 4.27318
rclavicle -1.12686e-014 6.55989e-015
rhumerus -38.7815 0.79474 -82.6664
rradius 25.4225
rwrist 0.257711
rhand -5.34827 -35.6225
rfingers 7.12502
rthumb 20.4588 -64.5647
lclavicle -1.12686e-014 6.55989e-015
lhumerus -35.3021 -5.02088 85.1668
lradius 19.6036
lwrist 9.67304
lhand -11.0155 -11.1825
lfingers 7.12502
lthumb 15.0056 18.2538
rfemur 1.69944 5.75699 19.1471
rtibia 2.25919
rfoot -19.5664 -24.9899
rtoes 1.99704
lfemur -0.277025 3.87451 -15.0217
ltibia 3.09961
lfoot -6.7192 -4.15341
ltoes 35.5096
189
root 8.39209 18.3914 5.87183 5.34926 -0.491751 0.0999409
lowerback -5.8603 -0.858778 -1.49041
upperback -3.41514 -1.06995 -0.369468
thorax -0.208285 -0.518462 0.396938
lowerneck 10.5519 -14.1335 -9.80375
upperneck 1.27655 -19.8779 7.3332
head 0.470259 -10.1424 4.32788
rclavicle -9.05713e-015 -5.56597e-015
rhumerus -38.726 0.77533 -82.6602
rradius 25.3056
rwrist 0.385265
rhand -4.96235 -36.108
rfingers 7.12502
rthumb 20.8296 -65.0099
lclavicle -9.05713e-015 -5.56597e-015
lhumerus -35.3692 -5.24075 85.2829
lradius 19.6659
lwrist 10.0113
lhand -11.1191 -11.181
lfingers 7.12502
lthumb 14.9057 18.2627
rfemur 1.75574 5.75488 19.0374
rtibia 2.26132
rfoot -19.6723 -25.0039
rtoes 1.9214
lfemur -0.220522 3.87813 -15.1263
ltibia 3.08688
lfoot -6.67217 -4.22227
ltoes 35.8782
190
root 8.39496 18.3902 5.87248 5.31243 -0.435208 0.0875729
lowerback -5.84985 -0.871593 -1.46115
upperback -3.38292 -1.0882 -0.370378
thorax -0.181112 -0.528284 0.378452
lowerneck 10.4433 -14.0412 -9.69886
upperneck 1.3443 -19.737 7.33725
head 0.48692 -10.0706 4.30373
rclavicle -1.27222e-014 1.78906e-015
rhumerus -38.8 0.676471 -82.6385
rradius 25.3614
rwrist 0.413204
rhand -5.03821 -35.973
rfingers 7.12502
rthumb 20.7567 -64.8829
lclavicle -1.27222e-014 1.78906e-015
lhumerus -35.3829 -5.47446 85.4241
lradius 19.7041
lwrist 10.3604
lhand -11.2156 -11.1596
lfingers 7.12502
lthumb 14.8128 18.291
rfemur 1.84348 5.76359 19.0561
rtibia 2.15044
rfoot -19.5884 -25.1259
rtoes 1.57412
lfemur -0.199631 3.88734 -15.1121
ltibia 3.15742
lfoot -6.63204 -4.27089
ltoes 35.7498
191
root 8.39863 18.3881 5.87246 5.30545 -0.418254 -0.0128086
lowerback -5.90068 -0.856799 -1.31441
upperback -3.33 -1.07419 -0.357422
thorax -0.100917 -0.523757 0.309044
lowerneck 10.2237 -13.9932 -9.51636
upperneck 1.47095 -19.639 7.2283
head 0.525191 -10.0161 4.21554
rclavicle 7.96381e-015 2.18663e-015
rhumerus -38.9256 0.562997 -82.6273
rradius 25.5106
rwrist 0.413615
rhand -5.1695 -35.6735
rfingers 7.12502
rthumb 20.6305 -64.5971
lclavicle 7.96381e-015 2.18663e-015
lhumerus -35.3628 -5.58209 85.4878
lradius 19.7785
lwrist 10.4338
lhand -11.2044 -11.1243
lfingers 7.12502
lthumb 14.8235 18.3255
rfemur 1.84117 5.77899 19.1713
rtibia 2.12825
rfoot -19.4773 -25.2087
rtoes 1.1985
lfemur -0.215091 3.88904 -15.002
ltibia 3.221
lfoot -6.62678 -4.25881
ltoes 35.2859
192
root 8.40174 18.3865 5.87212 5.32646 -0.402375 -0.0277237
lowerback -5.98909 -0.853414 -1.25347
upperback -3.24872 -1.07019 -0.376156
thorax 0.0303279 -0.523608 0.253774
lowerneck 9.69622 -13.9053 -9.23253
upperneck 1.81893 -19.463 7.07869
head 0.666906 -9.9188 4.06031
rclavicle 2.48481e-016 -3.97569e-016
rhumerus -38.8257 0.490631 -82.6534
rradius 25.4145
rwrist 0.467495
rhand -5.30131 -35.566
rfingers 7.12502
rthumb 20.5039 -64.5033
lclavicle 2.48481e-016 -3.97569e-016
lhumerus -35.2624 -5.68172 85.5241
lradius 19.8248
lwrist 10.4712
lhand -11.2663 -11.0884
lfingers 7.12502
lthumb 14.764 18.3658
rfemur 1.77603 5.70431 19.1699
rtibia 2.26615
rfoot -19.5849 -25.0698
rtoes 1.4878
lfemur -0.234582 3.85996 -14.9975
ltibia 3.20696
lfoot -6.56219 -4.29691
ltoes 35.8059
193
root 8.40556 18.387 5.87297 5.29291 -0.37907 0.128182
lowerback -5.98108 -0.867583 -1.38507
upperback -3.19211 -1.08145 -0.429518
thorax 0.0855103 -0.528585 0.271682
lowerneck 9.20661 -13.8044 -9.21597
upperneck 2.17771 -19.3038 7.03269
head 0.847328 -9.8339 3.9835
rclavicle 6.68413e-015 1.39149e-015
rhumerus -38.7339 0.489029 -82.6913
rradius 25.2642
rwrist 0.435935
rhand -5.3812 -35.6465
rfingers 7.12502
rthumb 20.4271 -64.592
lclavicle 6.68413e-015 1.39149e-015
lhumerus -35.1891 -5.68549 85.5358
lradius 19.86
lwrist 10.4414
lhand -11.3441 -10.9407
lfingers 7.12502
lthumb 14.689 18.519
rfemur 1.80193 5.57475 18.9482
rtibia 2.34927
rfoot -19.6928 -24.8956
rtoes 1.89144
lfemur -0.189164 3.8623 -15.2121
ltibia 3.18943
lfoot -6.48132 -4.38899
ltoes 36.3245
194
root 8.40842 18.3882 5.87511 5.24939 -0.39904 0.182129
lowerback -5.93915 -0.875235 -1.43481
upperback -3.19573 -1.08996 -0.430732
thorax 0.0594773 -0.532125 0.298491
lowerneck 8.53674 -13.6786 -8.90847
upperneck 2.80551 -19.0747 6.63548
head 1.07119 -9.70597 3.72417
rclavicle 9.41742e-015 -9.14409e-015
rhumerus -38.8457 0.573098 -82.7101
rradius 25.2559
rwrist 0.321479
rhand -5.23126 -35.7426
rfingers 7.12502
rthumb 20.5712 -64.6726
lclavicle 9.41742e-015 -9.14409e-015
lhumerus -35.248 -5.47228 85.4769
lradius 19.9499
lwrist 10.2379
lhand -11.2564 -10.7989
lfingers 7.12502
lthumb 14.7735 18.6546
rfemur 1.82191 5.58471 18.864
rtibia 2.34897
rfoot -19.5728 -24.9562
rtoes 1.42869
lfemur -0.124649 3.86856 -15.2947
ltibia 3.17282
lfoot -6.4696 -4.42487
ltoes 36.525
195
root 8.40979 18.3896 5.8754 5.26888 -0.426566 0.07384
lowerback -5.91328 -0.857252 -1.30267
upperback -3.23286 -1.07379 -0.410948
thorax 0.00480471 -0.525029 0.246477
lowerneck 7.63702 -13.5511 -8.93215
upperneck 3.88621 -18.8775 6.3896
head 1.54049 -9.6001 3.52629
rclavicle -2.73329e-016 1.66979e-014
rhumerus -38.9384 0.666158 -82.7632
rradius 25.1468
rwrist 0.243208
rhand -5.34136 -35.512
rfingers 7.12502
rthumb 20.4654 -64.4534
lclavicle -2.73329e-016 1.66979e-014
lhumerus -35.3347 -5.61707 85.5392
lradius 20.007
lwrist 10.3671
lhand -11.1777 -10.7714
lfingers 7.12502
lthumb 14.8493 18.6765
rfemur 1.72064 5.66079 18.9839
rtibia 2.43312
rfoot -19.5307 -25.0388
rtoes 1.01137
lfemur -0.1384 3.88444 -15.1585
ltibia 3.16091
lfoot -6.44719 -4.42207
ltoes 36.7744
196
root 8.41341 18.3905 5.87507 5.28115 -0.395765 0.0704774
lowerback -5.84086 -0.853002 -1.25496
upperback -3.29668 -1.07248 -0.415501
thorax -0.101967 -0.524261 0.216885
lowerneck 7.82634 -13.1914 -8.93391
upperneck 3.77694 -18.4152 6.65122
head 1.46101 -9.37358 3.65133
rclavicle 2.85753e-015 -1.03368e-014
rhumerus -38.9996 0.794599 -82.8136
rradius 24.8859
rwrist 0.211023
rhand -5.50472 -35.3027
rfingers 7.12502
rthumb 20.3084 -64.2609
lclavicle 2.85753e-015 -1.03368e-014
lhumerus -35.4115 -6.13856 85.8081
lradius 19.9731
lwrist 10.846
lhand -11.1771 -10.7095
lfingers 7.12502
lthumb 14.8499 18.7384
rfemur 1.61268 5.59216 18.9462
rtibia 2.61063
rfoot -19.7324 -24.9162
rtoes 1.39628
lfemur -0.186703 3.98549 -15.1544
ltibia 3.22348
lfoot -6.39682 -4.48139
ltoes 36.202
197
root 8.41747 18.3893 5.8747 5.28762 -0.331978 0.0693353
lowerback -5.82288 -0.876963 -1.22442
upperback -3.32769 -1.10662 -0.386094
thorax -0.143377 -0.541178 0.228584
lowerneck 7.57808 -12.855 -8.75622
upperneck 4.09406 -17.9395 6.44784
head 1.5266 -9.13036 3.54186
rclavicle 8.26199e-015 -5.96354e-016
rhumerus -39.015 0.957079 -82.8356
rradius 24.6296
rwrist 0.224688
rhand -5.2798 -35.3703
rfingers 7.12502
rthumb 20.5246 -64.3054
lclavicle 8.26199e-015 -5.96354e-016
lhumerus -35.4333 -6.32857 85.9716
lradius 19.9214
lwrist 10.9323
lhand -11.1577 -10.676
lfingers 7.12502
lthumb 14.8686 18.7705
rfemur 1.51582 5.44018 18.9043
rtibia 2.77952
rfoot -19.8481 -24.7867
rtoes 1.51446
lfemur -0.23964 4.08336 -15.165
ltibia 3.30798
lfoot -6.34489 -4.56988
ltoes 35.552
